<svg xmlns="http://www.w3.org/2000/svg" xmlns:xlink="http://www.w3.org/1999/xlink" width="171" height="171" viewBox="0 0 171 171">
  <defs>
    <clipPath id="clip-étoile_svg">
      <rect width="171" height="171"/>
    </clipPath>
  </defs>
  <g id="étoile_svg" data-name="étoile svg" clip-path="url(#clip-étoile_svg)">
    <path id="shapes-and-symbols" d="M126.452,157.854a4.933,4.933,0,0,1-2-.424L78.913,137.157,33.376,157.43a4.934,4.934,0,0,1-6.837-5.483l10.043-50.312L1.475,66.466a4.94,4.94,0,0,1,2.518-8.333L54.315,48.049,74.406,2.767C75.995-.8,81.83-.8,83.419,2.767L103.51,48.049l50.322,10.084a4.94,4.94,0,0,1,2.518,8.333l-35.108,35.169,10.043,50.312a4.937,4.937,0,0,1-4.834,5.907ZM78.913,126.813a4.9,4.9,0,0,1,2,.424L119.75,144.53l-8.7-43.551a4.946,4.946,0,0,1,1.348-4.461l30.462-30.511L99.076,57.231A4.925,4.925,0,0,1,95.537,54.4L78.913,16.93,62.288,54.4a4.925,4.925,0,0,1-3.539,2.836L14.961,66.007,45.422,96.518a4.946,4.946,0,0,1,1.348,4.461l-8.7,43.551L76.91,127.237a4.9,4.9,0,0,1,2-.424Z" transform="translate(6.468 6.41)" fill="none" stroke="#1a936f" stroke-width="10"/>
  </g>
</svg>
